<?xml version="1.0" encoding="UTF-8"?>
<svg width="512" height="512" viewBox="0 0 512 512" version="1.1" xmlns="http://www.w3.org/2000/svg">
  <!-- Lime Background -->
  <rect x="0" y="0" width="512" height="512" rx="128" fill="#C1FF72"/>
  <!-- Centered Logo Group -->
  <g transform="translate(256, 256) scale(18)">
    <g transform="translate(-12, -12)">
      <!-- Trophy in the background (Dark at 20% opacity) -->
      <path d="M18 2H6V4H4V9C4 11.21 5.79 13 8 13H9.17C9.58 14.73 10.93 16.1 12.67 16.4V19H10V21H14V19H11.33V16.4C13.07 16.1 14.42 14.73 14.83 13H16C18.21 13 20 11.21 20 9V4H18V2ZM6 9V6H8V11C6.9 11 6 10.1 6 9ZM18 9C18 10.1 17.1 11 16 11V6H18V9Z" fill="#121212" fill-opacity="0.2"/>
      <!-- Bold G in the foreground (Solid Dark) -->
      <path d="M12 6C8.69 6 6 8.69 6 12C6 15.31 8.69 18 12 18C15.31 18 18 15.31 18 12V10H12V13H15C14.5 14.5 13.5 15.5 12 15.5C10.07 15.5 8.5 13.93 8.5 12C8.5 10.07 10.07 8.5 12 8.5C13.1 8.5 14.1 9 14.8 9.8L16.6 8C15.4 6.8 13.8 6 12 6Z" fill="#121212"/>
    </g>
  </g>
</svg>
